<svg version="1.1" xmlns="http://www.w3.org/2000/svg" viewBox="0 0 369.4709014892578 256.2565762042999" width="369.4709014892578" height="256.2565762042999" class="excalidraw-svg">
  <!-- svg-source:excalidraw -->
  
  <defs>
    <style class="style-fonts">
      
    </style>
    
  </defs>
  <rect x="0" y="0" width="369.4709014892578" height="256.2565762042999" fill="#ffffff"></rect><g stroke-linecap="round"><g transform="translate(84.44891357421875 246.36345850080252) rotate(0 0 -117.72647094726562)"><path d="M-0.62 -0.11 C-0.51 -39.65, 0.64 -197.05, 0.68 -236.36 M1.25 -1.21 C1.27 -40.71, 0.52 -196.35, 0.1 -235.3" stroke="#1e1e1e" stroke-width="2" fill="none"></path></g><g transform="translate(84.44891357421875 246.36345850080252) rotate(0 0 -117.72647094726562)"><path d="M8.82 -211.87 C5.84 -217.82, 1.88 -226.59, 0.1 -235.3 M8.82 -211.87 C7.57 -216.91, 4.29 -224.71, 0.1 -235.3" stroke="#1e1e1e" stroke-width="2" fill="none"></path></g><g transform="translate(84.44891357421875 246.36345850080252) rotate(0 0 -117.72647094726562)"><path d="M-8.28 -211.75 C-6.12 -217.65, -4.94 -226.45, 0.1 -235.3 M-8.28 -211.75 C-5.15 -216.79, -4.05 -224.63, 0.1 -235.3" stroke="#1e1e1e" stroke-width="2" fill="none"></path></g></g><mask></mask><g stroke-linecap="round"><g transform="translate(20.06298828125 146.73571191877127) rotate(0 162.11123657226562 0)"><path d="M-1.14 -1 C52.88 -1.08, 270.17 -0.29, 324.23 -0.2 M0.46 1.09 C54.31 1.18, 269.11 1.32, 323.29 1.23" stroke="#1e1e1e" stroke-width="2" fill="none"></path></g><g transform="translate(20.06298828125 146.73571191877127) rotate(0 162.11123657226562 0)"><path d="M299.8 9.79 C305.38 7.38, 313.98 3.02, 323.29 1.23 M299.8 9.79 C305.49 8.31, 311.13 5.76, 323.29 1.23" stroke="#1e1e1e" stroke-width="2" fill="none"></path></g><g transform="translate(20.06298828125 146.73571191877127) rotate(0 162.11123657226562 0)"><path d="M299.79 -7.31 C305.41 -4.43, 314.02 -3.51, 323.29 1.23 M299.79 -7.31 C305.34 -4.34, 310.98 -2.45, 323.29 1.23" stroke="#1e1e1e" stroke-width="2" fill="none"></path></g></g><mask></mask><g stroke-linecap="round"><g transform="translate(85.76116943359375 144.72100244611502) rotate(0 48.32599639892578 -48.32599639892577)"><path d="M0 0 C16.11 -16.11, 80.54 -80.54, 96.65 -96.65 M0 0 C16.11 -16.11, 80.54 -80.54, 96.65 -96.65" stroke="#1e1e1e" stroke-width="2" fill="none"></path></g></g><mask></mask><g stroke-linecap="round"><g transform="translate(172.3804931640625 147.28130518049002) rotate(0 48.32599639892578 -48.32599639892577)"><path d="M0 0 C16.11 -16.11, 80.54 -80.54, 96.65 -96.65 M0 0 C16.11 -16.11, 80.54 -80.54, 96.65 -96.65" stroke="#1e1e1e" stroke-width="2" fill="none"></path></g></g><mask></mask><g stroke-linecap="round"><g transform="translate(262.81890869140625 149.10701929181815) rotate(0 48.32599639892578 -48.32599639892577)"><path d="M0 0 C16.11 -16.11, 80.54 -80.54, 96.65 -96.65 M0 0 C16.11 -16.11, 80.54 -80.54, 96.65 -96.65" stroke="#1e1e1e" stroke-width="2" fill="none"></path></g></g><mask></mask><g stroke-linecap="round"><g transform="translate(10 146.32210718244315) rotate(0 48.32599639892578 -48.32599639892577)"><path d="M0 0 C16.11 -16.11, 80.54 -80.54, 96.65 -96.65 M0 0 C16.11 -16.11, 80.54 -80.54, 96.65 -96.65" stroke="#1e1e1e" stroke-width="2" fill="none"></path></g></g><mask></mask></svg>