<svg version="1.1" xmlns="http://www.w3.org/2000/svg" viewBox="0 0 367.7776535999682 256.60192452755757" width="367.7776535999682" height="256.60192452755757" class="excalidraw-svg">
  <!-- svg-source:excalidraw -->
  
  <defs>
    <style class="style-fonts">
      
    </style>
    
  </defs>
  <rect x="0" y="0" width="367.7776535999682" height="256.60192452755757" fill="#ffffff"></rect><g stroke-linecap="round"><g transform="translate(74.34559710162691 246.96778843638486) rotate(0 0 -117.72647094726562)"><path d="M-0.72 -0.37 C-0.56 -39.43, 0.78 -195.82, 0.98 -235.05 M1.1 -1.6 C1.19 -40.98, 0.74 -198.13, 0.55 -236.97" stroke="#1e1e1e" stroke-width="2" fill="none"></path></g><g transform="translate(74.34559710162691 246.96778843638486) rotate(0 0 -117.72647094726562)"><path d="M9.19 -213.51 C6.12 -218.94, 4.81 -226.79, 0.55 -236.97 M9.19 -213.51 C7.48 -219.83, 4.51 -225.72, 0.55 -236.97" stroke="#1e1e1e" stroke-width="2" fill="none"></path></g><g transform="translate(74.34559710162691 246.96778843638486) rotate(0 0 -117.72647094726562)"><path d="M-7.91 -213.44 C-5.86 -218.8, -2.05 -226.66, 0.55 -236.97 M-7.91 -213.44 C-4.94 -219.81, -3.24 -225.72, 0.55 -236.97" stroke="#1e1e1e" stroke-width="2" fill="none"></path></g></g><mask></mask><g stroke-linecap="round"><g transform="translate(9.959671808658157 147.34004185435361) rotate(0 162.11123657226562 0)"><path d="M0.98 0.4 C55.22 0.41, 271.01 -0.28, 324.71 -0.32 M0.04 -0.44 C54.23 -0.22, 269.77 0.71, 324.02 1.05" stroke="#1e1e1e" stroke-width="2" fill="none"></path></g><g transform="translate(9.959671808658157 147.34004185435361) rotate(0 162.11123657226562 0)"><path d="M300.49 9.48 C306.82 8.08, 311.27 3.53, 324.02 1.05 M300.49 9.48 C307.71 7.41, 315.79 3.98, 324.02 1.05" stroke="#1e1e1e" stroke-width="2" fill="none"></path></g><g transform="translate(9.959671808658157 147.34004185435361) rotate(0 162.11123657226562 0)"><path d="M300.57 -7.62 C306.84 -4.91, 311.27 -5.36, 324.02 1.05 M300.57 -7.62 C307.85 -4.3, 315.91 -2.34, 324.02 1.05" stroke="#1e1e1e" stroke-width="2" fill="none"></path></g></g><mask></mask><g stroke-linecap="round"><g transform="translate(75.67479784625581 94.15763634827917) rotate(0 22.844940185546875 0)"><path d="M0.27 -0.45 C7.8 -0.48, 37.63 -0.3, 45.25 -0.15 M-0.26 0.51 C7.44 0.56, 38.58 0.63, 46.26 0.47" stroke="#1e1e1e" stroke-width="2" fill="none"></path></g></g><mask></mask><g stroke-linecap="round"><g transform="translate(134.38738329547456 193.00443810609167) rotate(0 22.844940185546875 0)"><path d="M0.3 -0.25 C7.78 -0.3, 37.92 -0.16, 45.4 -0.07 M-0.21 0.8 C7.41 0.83, 38.75 0.84, 46.48 0.6" stroke="#1e1e1e" stroke-width="2" fill="none"></path></g></g><mask></mask><g stroke-linecap="round"><g transform="translate(200.42788012164644 97.87687462952917) rotate(0 22.844940185546875 0)"><path d="M-0.19 0.47 C7.43 0.48, 37.87 0.19, 45.43 0.07 M0.71 0.24 C8.27 0.34, 37.29 0.81, 44.87 0.8" stroke="#1e1e1e" stroke-width="2" fill="none"></path></g></g><mask></mask><g stroke-linecap="round"><g transform="translate(258.89443285602147 196.97685021546667) rotate(0 22.844940185546875 0)"><path d="M0.18 -0.37 C7.94 -0.43, 38.52 -0.31, 46.16 -0.19 M-0.39 0.63 C7.37 0.63, 38.26 0.6, 45.98 0.41" stroke="#1e1e1e" stroke-width="2" fill="none"></path></g></g><mask></mask><g stroke-linecap="round"><g transform="translate(311.58776171344334 95.58399743226354) rotate(0 22.844940185546875 0)"><path d="M0.37 0.31 C8.04 0.32, 38.67 -0.12, 46.19 -0.14 M-0.11 -0.01 C7.52 0.1, 38.49 0.62, 46.02 0.48" stroke="#1e1e1e" stroke-width="2" fill="none"></path></g></g><mask></mask></svg>