<svg version="1.1" xmlns="http://www.w3.org/2000/svg" viewBox="0 0 855.1268688648756 620.3608625265772" width="855.1268688648756" height="620.3608625265772" class="excalidraw-svg">
  <!-- svg-source:excalidraw -->
  
  <defs>
    <style class="style-fonts">
      
    </style>
    
  </defs>
  <rect x="0" y="0" width="855.1268688648756" height="620.3608625265772" fill="#ffffff"></rect><g stroke-linecap="round"><g transform="translate(129.90445700819964 266.87330627441406) rotate(0 7.105427357601002e-15 -128.43665313720703)"><path d="M0 0 C0 -42.81, 0 -214.06, 0 -256.87 M0 0 C0 -42.81, 0 -214.06, 0 -256.87" stroke="#1e1e1e" stroke-width="2" fill="none"></path></g><g transform="translate(129.90445700819964 266.87330627441406) rotate(0 7.105427357601002e-15 -128.43665313720703)"><path d="M0 -256.87 L6.34 -243.28 L-6.34 -243.28 L0 -256.87" stroke="none" stroke-width="0" fill="#1e1e1e" fill-rule="evenodd"></path><path d="M0 -256.87 C2.16 -252.25, 4.31 -247.63, 6.34 -243.28 M0 -256.87 C1.65 -253.34, 3.29 -249.81, 6.34 -243.28 M6.34 -243.28 C3.7 -243.28, 1.07 -243.28, -6.34 -243.28 M6.34 -243.28 C2.91 -243.28, -0.51 -243.28, -6.34 -243.28 M-6.34 -243.28 C-4.57 -247.07, -2.81 -250.85, 0 -256.87 M-6.34 -243.28 C-4.62 -246.97, -2.9 -250.65, 0 -256.87 M0 -256.87 C0 -256.87, 0 -256.87, 0 -256.87 M0 -256.87 C0 -256.87, 0 -256.87, 0 -256.87" stroke="#1e1e1e" stroke-width="2" fill="none"></path></g></g><mask></mask><g stroke-linecap="round"><g transform="translate(12.564857398824643 163.76881408691406) rotate(0 170.77997589111328 0)"><path d="M0 0 C56.93 0, 284.63 0, 341.56 0 M0 0 C56.93 0, 284.63 0, 341.56 0" stroke="#1e1e1e" stroke-width="2" fill="none"></path></g><g transform="translate(12.564857398824643 163.76881408691406) rotate(0 170.77997589111328 0)"><path d="M341.56 0 L327.97 6.34 L327.97 -6.34 L341.56 0" stroke="none" stroke-width="0" fill="#1e1e1e" fill-rule="evenodd"></path><path d="M341.56 0 C338.07 1.63, 334.58 3.25, 327.97 6.34 M341.56 0 C337.53 1.88, 333.5 3.76, 327.97 6.34 M327.97 6.34 C327.97 3.24, 327.97 0.14, 327.97 -6.34 M327.97 6.34 C327.97 2.86, 327.97 -0.63, 327.97 -6.34 M327.97 -6.34 C330.75 -5.04, 333.52 -3.75, 341.56 0 M327.97 -6.34 C331.94 -4.49, 335.91 -2.63, 341.56 0 M341.56 0 C341.56 0, 341.56 0, 341.56 0 M341.56 0 C341.56 0, 341.56 0, 341.56 0" stroke="#1e1e1e" stroke-width="2" fill="none"></path></g></g><mask></mask><g transform="translate(30.269569312887143 173.61070251464844) rotate(0 165.7609634399414 -28.862411499023438)" stroke="none"><path fill="#1e1e1e" d="M -1.01,-0.11 Q -1.01,-0.11 -0.84,-1.17 -0.68,-2.22 -0.35,-3.33 -0.01,-4.45 0.42,-5.62 0.87,-6.79 1.33,-7.98 1.80,-9.17 2.20,-10.22 2.60,-11.28 2.92,-12.13 3.24,-12.97 3.42,-13.54 3.59,-14.11 3.77,-14.96 3.94,-15.80 4.09,-16.39 4.23,-16.97 4.44,-17.73 4.66,-18.49 5.03,-19.43 5.39,-20.37 5.91,-21.50 6.43,-22.64 7.05,-23.91 7.68,-25.18 8.39,-26.71 9.11,-28.24 9.85,-29.93 10.58,-31.63 11.19,-33.12 11.80,-34.62 12.28,-35.88 12.76,-37.14 13.16,-38.22 13.57,-39.30 14.00,-40.34 14.43,-41.37 15.01,-42.59 15.58,-43.82 16.21,-45.12 16.84,-46.41 17.35,-47.50 17.86,-48.59 18.23,-49.41 18.59,-50.23 18.88,-50.84 19.17,-51.44 19.60,-52.33 20.04,-53.21 20.50,-54.11 20.95,-55.01 21.29,-55.50 21.63,-55.99 22.17,-56.54 22.71,-57.10 23.45,-57.74 24.19,-58.38 24.97,-59.15 25.76,-59.93 26.49,-60.72 27.22,-61.52 27.85,-62.20 28.47,-62.88 29.00,-63.41 29.53,-63.95 30.04,-64.35 30.55,-64.75 31.09,-65.09 31.63,-65.42 32.24,-65.74 32.85,-66.07 33.54,-66.39 34.23,-66.71 34.90,-67.03 35.57,-67.34 36.22,-67.64 36.87,-67.94 37.54,-68.18 38.22,-68.43 38.90,-68.59 39.58,-68.76 40.26,-68.85 40.93,-68.94 41.54,-68.99 42.15,-69.04 42.70,-69.07 43.26,-69.09 43.85,-69.11 44.44,-69.12 45.13,-69.12 45.82,-69.11 46.61,-69.00 47.40,-68.89 48.17,-68.64 48.94,-68.39 49.62,-68.10 50.31,-67.81 50.92,-67.51 51.53,-67.22 52.06,-66.92 52.58,-66.62 53.08,-66.30 53.57,-65.99 54.11,-65.60 54.65,-65.21 55.23,-64.77 55.81,-64.32 56.41,-63.86 57.00,-63.40 57.60,-62.93 58.21,-62.45 58.81,-61.98 59.42,-61.51 60.34,-60.71 61.25,-59.92 61.99,-59.25 62.72,-58.57 63.35,-57.98 63.98,-57.39 64.55,-56.89 65.13,-56.39 65.69,-55.92 66.26,-55.45 66.84,-54.98 67.41,-54.52 68.23,-53.72 69.05,-52.93 69.71,-52.34 70.37,-51.74 70.98,-51.18 71.60,-50.61 72.15,-50.08 72.70,-49.54 73.24,-49.06 73.77,-48.59 74.31,-48.12 74.84,-47.65 75.35,-47.19 75.85,-46.74 76.33,-46.30 76.81,-45.85 77.28,-45.40 77.75,-44.95 78.23,-44.45 78.70,-43.94 79.15,-43.41 79.60,-42.87 80.00,-42.38 80.40,-41.89 80.80,-41.45 81.20,-41.02 81.58,-40.59 81.97,-40.17 82.34,-39.76 82.71,-39.34 83.08,-38.92 83.45,-38.49 83.84,-38.02 84.23,-37.54 84.68,-36.90 85.13,-36.25 85.58,-35.55 86.03,-34.85 86.48,-34.14 86.93,-33.43 87.36,-32.75 87.78,-32.07 88.13,-31.61 88.47,-31.14 89.00,-30.44 89.54,-29.73 90.12,-28.82 90.70,-27.91 91.00,-27.36 91.30,-26.80 91.59,-26.31 91.88,-25.81 92.37,-25.16 92.87,-24.50 93.31,-23.95 93.75,-23.39 94.12,-22.82 94.49,-22.25 94.85,-21.75 95.21,-21.25 95.69,-20.72 96.16,-20.19 96.69,-19.55 97.23,-18.91 97.80,-18.16 98.37,-17.42 98.94,-16.53 99.52,-15.64 99.97,-14.91 100.41,-14.18 100.75,-13.70 101.10,-13.23 101.52,-12.68 101.95,-12.13 102.50,-11.35 103.04,-10.56 103.55,-9.86 104.05,-9.16 104.43,-8.56 104.80,-7.96 105.13,-7.54 105.46,-7.12 105.89,-6.59 106.31,-6.06 106.75,-5.60 107.18,-5.13 107.70,-4.32 108.22,-3.51 108.70,-2.76 109.18,-2.01 109.66,-1.42 110.13,-0.84 110.57,-0.36 111.00,0.10 111.69,0.77 112.37,1.44 112.98,2.01 113.58,2.59 114.28,3.17 114.98,3.76 115.55,4.17 116.12,4.58 116.66,4.97 117.21,5.36 117.92,5.84 118.63,6.32 119.50,6.87 120.36,7.41 121.10,7.69 121.83,7.97 122.61,8.14 123.39,8.31 124.10,8.36 124.80,8.41 125.34,8.40 125.89,8.40 126.46,8.40 127.02,8.39 127.64,8.29 128.27,8.20 128.95,7.91 129.63,7.61 130.13,6.97 130.64,6.33 131.27,5.61 131.91,4.89 132.38,4.49 132.86,4.10 133.36,3.72 133.86,3.35 134.36,2.99 134.85,2.63 135.56,2.02 136.27,1.41 136.63,0.82 136.98,0.23 137.45,-0.44 137.92,-1.12 138.30,-1.63 138.68,-2.14 139.17,-2.67 139.65,-3.19 140.17,-3.68 140.70,-4.17 141.23,-4.64 141.76,-5.11 142.27,-5.59 142.78,-6.08 143.30,-6.58 143.81,-7.09 144.23,-7.55 144.65,-8.00 145.24,-8.68 145.84,-9.36 146.32,-10.03 146.81,-10.69 147.23,-11.17 147.65,-11.65 148.42,-12.52 149.19,-13.40 149.81,-14.08 150.44,-14.76 151.10,-15.44 151.75,-16.12 152.32,-16.72 152.89,-17.32 153.38,-17.86 153.87,-18.40 154.33,-18.88 154.78,-19.35 155.14,-19.76 155.51,-20.18 156.11,-20.92 156.70,-21.67 157.03,-22.09 157.36,-22.52 157.81,-23.17 158.25,-23.81 158.74,-24.56 159.24,-25.31 159.81,-26.03 160.38,-26.74 161.03,-27.61 161.67,-28.47 161.98,-28.93 162.29,-29.39 162.81,-30.02 163.34,-30.66 164.13,-31.49 164.92,-32.33 165.94,-33.38 166.96,-34.44 168.06,-35.63 169.15,-36.83 170.21,-38.06 171.27,-39.29 172.30,-40.42 173.32,-41.56 174.32,-42.64 175.31,-43.71 176.35,-44.85 177.38,-45.98 178.38,-47.03 179.38,-48.09 180.16,-48.91 180.94,-49.73 181.43,-50.34 181.93,-50.94 182.28,-51.35 182.63,-51.77 183.05,-52.23 183.46,-52.70 183.85,-53.13 184.24,-53.56 184.97,-54.11 185.70,-54.66 186.46,-55.04 187.22,-55.41 188.21,-55.82 189.21,-56.23 190.32,-56.69 191.43,-57.15 192.54,-57.57 193.66,-57.99 194.76,-58.37 195.87,-58.74 196.95,-59.10 198.04,-59.46 199.20,-59.77 200.35,-60.08 201.49,-60.37 202.63,-60.65 203.56,-60.93 204.49,-61.21 205.20,-61.43 205.92,-61.65 206.45,-61.78 206.98,-61.92 207.87,-62.05 208.77,-62.18 209.47,-62.20 210.18,-62.22 211.35,-62.16 212.53,-62.10 213.53,-62.07 214.54,-62.04 215.28,-62.07 216.03,-62.09 217.05,-61.97 218.07,-61.85 219.45,-61.50 220.82,-61.14 222.37,-60.57 223.91,-60.00 225.44,-59.35 226.96,-58.70 228.32,-58.08 229.68,-57.47 230.89,-56.89 232.10,-56.32 233.30,-55.75 234.51,-55.19 235.81,-54.55 237.12,-53.92 238.58,-53.10 240.05,-52.29 241.64,-51.32 243.24,-50.35 244.72,-49.39 246.20,-48.43 247.39,-47.57 248.57,-46.71 249.43,-45.99 250.28,-45.28 250.88,-44.74 251.49,-44.21 251.97,-43.63 252.45,-43.06 252.89,-42.32 253.33,-41.59 253.81,-40.73 254.30,-39.88 254.83,-38.97 255.37,-38.06 255.85,-37.30 256.34,-36.54 256.74,-35.99 257.14,-35.43 257.48,-35.02 257.82,-34.61 258.16,-34.16 258.49,-33.72 258.89,-33.09 259.29,-32.45 259.76,-31.69 260.24,-30.93 260.78,-30.10 261.32,-29.27 261.83,-28.46 262.34,-27.66 262.76,-27.00 263.18,-26.34 263.53,-25.80 263.89,-25.26 264.27,-24.65 264.65,-24.05 265.10,-23.31 265.55,-22.57 266.08,-21.68 266.62,-20.79 267.18,-19.93 267.74,-19.06 268.34,-18.16 268.94,-17.26 269.44,-16.66 269.93,-16.05 270.44,-15.43 270.95,-14.80 271.54,-14.07 272.12,-13.35 272.73,-12.59 273.35,-11.83 273.85,-11.23 274.36,-10.63 274.75,-10.22 275.13,-9.81 275.70,-9.24 276.26,-8.67 277.11,-8.18 277.97,-7.69 278.62,-7.32 279.28,-6.95 279.88,-6.61 280.48,-6.27 281.03,-5.97 281.59,-5.67 282.13,-5.37 282.67,-5.08 283.26,-4.78 283.84,-4.49 284.59,-4.16 285.33,-3.84 286.17,-3.54 287.01,-3.24 287.92,-2.99 288.82,-2.75 289.92,-2.56 291.03,-2.38 292.60,-2.28 294.17,-2.18 296.34,-2.13 298.51,-2.08 300.98,-2.04 303.45,-2.01 305.72,-2.09 307.98,-2.17 309.78,-2.44 311.57,-2.72 312.94,-3.18 314.30,-3.63 315.55,-4.22 316.79,-4.81 318.03,-5.55 319.27,-6.30 320.39,-7.08 321.50,-7.87 322.33,-8.55 323.15,-9.24 323.66,-9.84 324.17,-10.44 324.52,-10.96 324.86,-11.48 325.08,-12.00 325.31,-12.53 325.54,-13.17 325.77,-13.82 326.25,-15.00 326.73,-16.18 327.03,-17.09 327.33,-18.00 327.58,-18.81 327.84,-19.63 328.09,-20.49 328.34,-21.35 328.64,-22.40 328.94,-23.45 329.18,-24.38 329.42,-25.31 329.59,-26.20 329.76,-27.08 329.98,-28.23 330.21,-29.38 330.37,-30.44 330.54,-31.50 330.57,-32.31 330.60,-33.12 330.63,-34.60 330.66,-36.08 330.68,-36.21 330.71,-36.35 330.77,-36.47 330.84,-36.59 330.94,-36.69 331.04,-36.78 331.17,-36.84 331.30,-36.90 331.43,-36.91 331.57,-36.92 331.71,-36.89 331.84,-36.86 331.96,-36.79 332.08,-36.71 332.17,-36.61 332.26,-36.50 332.31,-36.37 332.36,-36.24 332.36,-36.10 332.37,-35.96 332.33,-35.83 332.29,-35.70 332.21,-35.58 332.13,-35.47 332.02,-35.39 331.91,-35.30 331.78,-35.26 331.64,-35.22 331.51,-35.22 331.37,-35.22 331.24,-35.27 331.11,-35.31 331.00,-35.40 330.89,-35.48 330.81,-35.60 330.73,-35.71 330.70,-35.85 330.66,-35.98 330.67,-36.12 330.68,-36.26 330.73,-36.39 330.79,-36.52 330.88,-36.62 330.97,-36.73 331.09,-36.80 331.21,-36.87 331.34,-36.90 331.48,-36.92 331.62,-36.91 331.75,-36.89 331.88,-36.83 332.01,-36.77 332.11,-36.67 332.20,-36.58 332.27,-36.45 332.33,-36.33 332.35,-36.19 332.37,-36.06 332.37,-36.06 332.37,-36.06 332.31,-34.53 332.25,-33.00 332.15,-32.15 332.05,-31.30 331.92,-30.20 331.79,-29.10 331.61,-27.92 331.44,-26.74 331.25,-25.82 331.05,-24.89 330.81,-23.96 330.58,-23.04 330.33,-21.94 330.09,-20.84 329.83,-19.95 329.57,-19.05 329.29,-18.26 329.01,-17.47 328.72,-16.51 328.43,-15.56 328.03,-14.32 327.62,-13.09 327.30,-12.36 326.98,-11.62 326.59,-11.02 326.21,-10.42 325.74,-9.90 325.27,-9.39 324.64,-8.80 324.01,-8.21 323.14,-7.49 322.28,-6.77 321.13,-5.95 319.98,-5.13 318.68,-4.35 317.39,-3.57 316.07,-2.94 314.75,-2.30 313.28,-1.80 311.80,-1.31 309.92,-1.00 308.05,-0.69 305.74,-0.58 303.44,-0.47 300.97,-0.46 298.49,-0.45 296.30,-0.45 294.10,-0.44 292.45,-0.47 290.80,-0.49 289.58,-0.59 288.35,-0.69 287.35,-0.88 286.35,-1.07 285.39,-1.32 284.43,-1.58 283.56,-1.90 282.69,-2.21 282.06,-2.54 281.42,-2.86 280.89,-3.17 280.36,-3.49 279.81,-3.81 279.25,-4.14 278.67,-4.48 278.09,-4.82 277.40,-5.19 276.72,-5.57 276.08,-5.95 275.44,-6.34 274.98,-6.74 274.51,-7.13 274.03,-7.83 273.55,-8.52 273.22,-8.99 272.89,-9.46 272.43,-10.08 271.98,-10.69 271.34,-11.44 270.70,-12.19 270.09,-12.92 269.48,-13.66 269.00,-14.32 268.52,-14.97 268.05,-15.63 267.59,-16.29 266.92,-17.17 266.26,-18.04 265.64,-18.88 265.01,-19.72 264.38,-20.57 263.74,-21.43 263.25,-22.18 262.76,-22.93 262.41,-23.55 262.06,-24.17 261.76,-24.74 261.45,-25.31 261.09,-25.96 260.73,-26.61 260.23,-27.37 259.72,-28.13 259.09,-28.94 258.47,-29.75 257.92,-30.53 257.38,-31.31 256.77,-32.38 256.16,-33.45 255.87,-33.94 255.58,-34.43 255.24,-35.04 254.90,-35.65 254.44,-36.42 253.98,-37.19 253.38,-38.09 252.78,-38.99 252.26,-39.84 251.74,-40.70 251.39,-41.38 251.05,-42.05 250.72,-42.59 250.40,-43.13 249.91,-43.70 249.43,-44.26 248.61,-44.94 247.79,-45.63 246.63,-46.47 245.47,-47.30 244.01,-48.25 242.54,-49.20 240.97,-50.15 239.39,-51.10 237.96,-51.89 236.52,-52.68 235.22,-53.30 233.92,-53.92 232.71,-54.47 231.49,-55.02 230.29,-55.57 229.08,-56.12 227.73,-56.70 226.38,-57.28 224.88,-57.87 223.38,-58.47 221.90,-58.96 220.43,-59.45 219.16,-59.71 217.88,-59.97 216.96,-60.04 216.03,-60.11 215.28,-60.13 214.54,-60.15 213.54,-60.12 212.53,-60.09 211.37,-60.03 210.20,-59.96 209.07,-60.00 207.94,-60.03 207.12,-60.03 206.30,-60.02 205.60,-59.90 204.90,-59.78 203.95,-59.52 203.00,-59.25 201.88,-58.95 200.76,-58.64 199.66,-58.31 198.56,-57.98 197.50,-57.59 196.44,-57.19 195.39,-56.77 194.35,-56.35 193.30,-55.86 192.26,-55.38 191.22,-54.83 190.18,-54.28 189.27,-53.74 188.37,-53.21 187.31,-52.64 186.26,-52.06 185.79,-51.76 185.32,-51.46 184.88,-51.14 184.44,-50.82 183.77,-50.34 183.09,-49.86 182.53,-49.32 181.97,-48.77 181.20,-47.94 180.44,-47.11 179.47,-46.05 178.50,-44.98 177.49,-43.83 176.48,-42.67 175.52,-41.57 174.57,-40.47 173.61,-39.32 172.65,-38.17 171.64,-36.86 170.64,-35.56 169.62,-34.28 168.61,-33.01 167.73,-31.89 166.86,-30.77 166.24,-29.85 165.63,-28.93 165.21,-28.32 164.79,-27.71 164.48,-27.25 164.18,-26.79 163.81,-26.22 163.44,-25.66 163.05,-25.15 162.66,-24.64 162.20,-24.12 161.75,-23.60 161.19,-22.79 160.62,-21.98 160.26,-21.57 159.89,-21.16 159.55,-20.75 159.21,-20.33 158.67,-19.79 158.12,-19.25 157.75,-18.84 157.39,-18.44 156.97,-18.01 156.55,-17.58 156.12,-17.17 155.69,-16.76 155.20,-16.21 154.71,-15.67 154.19,-15.06 153.66,-14.45 153.12,-13.75 152.58,-13.06 152.05,-12.28 151.52,-11.51 150.72,-10.50 149.92,-9.50 149.36,-8.94 148.80,-8.39 148.37,-7.88 147.93,-7.38 147.31,-6.75 146.69,-6.11 146.26,-5.64 145.83,-5.17 145.33,-4.61 144.83,-4.06 144.31,-3.50 143.79,-2.94 143.31,-2.46 142.84,-1.99 142.42,-1.56 142.00,-1.12 141.65,-0.70 141.30,-0.29 140.99,0.17 140.68,0.63 140.05,1.52 139.43,2.42 138.97,3.06 138.51,3.69 137.68,4.45 136.84,5.20 136.39,5.57 135.93,5.95 135.16,6.62 134.39,7.30 133.94,7.84 133.48,8.37 133.15,8.83 132.82,9.28 132.26,9.84 131.69,10.40 131.09,10.70 130.49,11.01 129.91,11.22 129.32,11.44 128.50,11.60 127.68,11.76 127.03,11.75 126.39,11.75 125.83,11.73 125.28,11.71 124.57,11.68 123.86,11.64 122.85,11.50 121.84,11.36 121.25,11.16 120.65,10.96 120.04,10.70 119.42,10.45 118.67,9.99 117.91,9.54 117.43,9.25 116.95,8.97 116.48,8.67 116.01,8.37 115.40,7.90 114.79,7.43 114.25,7.00 113.71,6.56 113.02,5.97 112.33,5.39 111.61,4.69 110.90,3.99 110.33,3.37 109.76,2.75 109.39,2.35 109.02,1.95 108.55,1.45 108.07,0.95 107.48,0.33 106.89,-0.29 106.29,-0.98 105.70,-1.67 105.20,-2.25 104.71,-2.83 104.18,-3.41 103.65,-4.00 103.27,-4.50 102.88,-5.00 102.42,-5.63 101.96,-6.26 101.66,-6.77 101.36,-7.29 100.87,-7.97 100.37,-8.66 99.85,-9.39 99.33,-10.11 98.88,-10.72 98.44,-11.32 98.02,-11.94 97.60,-12.57 97.21,-13.23 96.82,-13.89 96.28,-14.69 95.73,-15.48 95.22,-16.15 94.71,-16.81 94.21,-17.41 93.72,-18.02 93.20,-18.64 92.69,-19.25 92.41,-19.74 92.13,-20.23 91.85,-20.72 91.57,-21.21 91.28,-21.70 90.98,-22.19 90.53,-22.85 90.07,-23.51 89.77,-23.97 89.47,-24.43 89.18,-24.96 88.88,-25.49 88.60,-26.01 88.31,-26.53 87.81,-27.40 87.31,-28.28 86.87,-29.00 86.43,-29.73 86.09,-30.24 85.75,-30.76 85.32,-31.41 84.89,-32.06 84.41,-32.73 83.93,-33.41 83.46,-34.05 82.99,-34.69 82.56,-35.26 82.13,-35.82 81.75,-36.29 81.37,-36.76 80.69,-37.60 80.01,-38.45 79.64,-38.89 79.26,-39.34 78.85,-39.83 78.43,-40.33 78.06,-40.82 77.68,-41.30 77.29,-41.80 76.90,-42.29 76.47,-42.77 76.04,-43.26 75.61,-43.72 75.17,-44.18 74.73,-44.63 74.29,-45.09 73.82,-45.56 73.36,-46.02 72.83,-46.53 72.31,-47.03 71.77,-47.56 71.23,-48.08 70.72,-48.62 70.22,-49.16 69.64,-49.72 69.07,-50.28 68.41,-50.86 67.75,-51.45 66.88,-52.13 66.01,-52.82 65.42,-53.31 64.84,-53.81 64.28,-54.31 63.71,-54.82 63.14,-55.35 62.57,-55.88 61.97,-56.44 61.37,-57.01 60.64,-57.59 59.92,-58.17 58.92,-58.84 57.91,-59.51 57.29,-59.96 56.67,-60.42 56.05,-60.87 55.44,-61.31 54.83,-61.75 54.23,-62.19 53.65,-62.60 53.08,-63.01 52.57,-63.37 52.06,-63.74 51.21,-64.30 50.36,-64.87 49.82,-65.15 49.29,-65.42 48.70,-65.67 48.12,-65.92 47.58,-66.10 47.04,-66.29 46.42,-66.37 45.80,-66.45 45.13,-66.45 44.46,-66.45 43.37,-66.46 42.28,-66.47 41.75,-66.46 41.22,-66.45 40.66,-66.40 40.11,-66.35 39.55,-66.25 39.00,-66.14 38.41,-65.96 37.82,-65.77 37.19,-65.50 36.55,-65.23 35.88,-64.92 35.20,-64.61 34.54,-64.31 33.88,-64.01 33.29,-63.73 32.70,-63.46 31.78,-62.98 30.86,-62.51 30.34,-62.07 29.82,-61.63 29.22,-60.98 28.62,-60.34 27.94,-59.46 27.25,-58.57 26.50,-57.65 25.75,-56.74 25.10,-56.05 24.45,-55.37 23.69,-54.58 22.94,-53.78 22.38,-52.98 21.82,-52.17 21.22,-51.38 20.63,-50.58 20.27,-50.09 19.91,-49.59 19.49,-48.80 19.07,-48.02 18.56,-46.92 18.05,-45.83 17.43,-44.54 16.81,-43.25 16.26,-42.05 15.70,-40.84 15.29,-39.83 14.88,-38.82 14.49,-37.73 14.10,-36.64 13.64,-35.36 13.17,-34.07 12.59,-32.55 12.00,-31.03 11.29,-29.30 10.59,-27.57 9.92,-26.02 9.25,-24.46 8.71,-23.20 8.17,-21.93 7.77,-20.80 7.37,-19.67 7.09,-18.78 6.81,-17.88 6.59,-17.12 6.37,-16.35 6.17,-15.74 5.96,-15.12 5.60,-14.28 5.24,-13.44 4.97,-12.91 4.69,-12.38 4.33,-11.58 3.97,-10.78 3.60,-9.71 3.22,-8.64 2.80,-7.44 2.37,-6.25 1.99,-5.12 1.62,-4.00 1.38,-3.01 1.14,-2.02 1.07,-0.95 1.01,0.11 0.98,0.22 0.95,0.34 0.90,0.45 0.84,0.56 0.76,0.66 0.68,0.75 0.58,0.82 0.48,0.89 0.37,0.94 0.25,0.98 0.13,1.00 0.01,1.01 -0.10,1.00 -0.23,0.99 -0.34,0.94 -0.46,0.90 -0.56,0.83 -0.66,0.77 -0.74,0.67 -0.83,0.58 -0.88,0.48 -0.94,0.37 -0.97,0.25 -1.00,0.13 -1.01,0.01 -1.01,-0.11 -1.01,-0.11 L -1.01,-0.11 Z"></path></g><g stroke-linecap="round"><g transform="translate(127.43050972271865 610.3608625265772) rotate(0 7.105427357601002e-15 -128.43665313720703)"><path d="M0 0 C0 -42.81, 0 -214.06, 0 -256.87 M0 0 C0 -42.81, 0 -214.06, 0 -256.87" stroke="#1e1e1e" stroke-width="2" fill="none"></path></g><g transform="translate(127.43050972271865 610.3608625265772) rotate(0 7.105427357601002e-15 -128.43665313720703)"><path d="M0 -256.87 L6.34 -243.28 L-6.34 -243.28 L0 -256.87" stroke="none" stroke-width="0" fill="#1e1e1e" fill-rule="evenodd"></path><path d="M0 -256.87 C1.8 -253.02, 3.59 -249.17, 6.34 -243.28 M0 -256.87 C1.65 -253.33, 3.3 -249.79, 6.34 -243.28 M6.34 -243.28 C2.63 -243.28, -1.08 -243.28, -6.34 -243.28 M6.34 -243.28 C3.63 -243.28, 0.93 -243.28, -6.34 -243.28 M-6.34 -243.28 C-4.89 -246.39, -3.44 -249.5, 0 -256.87 M-6.34 -243.28 C-4.78 -246.62, -3.23 -249.95, 0 -256.87 M0 -256.87 C0 -256.87, 0 -256.87, 0 -256.87 M0 -256.87 C0 -256.87, 0 -256.87, 0 -256.87" stroke="#1e1e1e" stroke-width="2" fill="none"></path></g></g><mask></mask><g stroke-linecap="round"><g transform="translate(10 507.2563703390772) rotate(0 170.77997589111328 0)"><path d="M0 0 C56.93 0, 284.63 0, 341.56 0 M0 0 C56.93 0, 284.63 0, 341.56 0" stroke="#1e1e1e" stroke-width="2" fill="none"></path></g><g transform="translate(10 507.2563703390772) rotate(0 170.77997589111328 0)"><path d="M341.56 0 L327.97 6.34 L327.97 -6.34 L341.56 0" stroke="none" stroke-width="0" fill="#1e1e1e" fill-rule="evenodd"></path><path d="M341.56 0 C337.26 2.01, 332.95 4.01, 327.97 6.34 M341.56 0 C337.89 1.71, 334.23 3.42, 327.97 6.34 M327.97 6.34 C327.97 3.38, 327.97 0.42, 327.97 -6.34 M327.97 6.34 C327.97 2.43, 327.97 -1.48, 327.97 -6.34 M327.97 -6.34 C333.24 -3.88, 338.51 -1.42, 341.56 0 M327.97 -6.34 C333.1 -3.94, 338.24 -1.55, 341.56 0 M341.56 0 C341.56 0, 341.56 0, 341.56 0 M341.56 0 C341.56 0, 341.56 0, 341.56 0" stroke="#1e1e1e" stroke-width="2" fill="none"></path></g></g><mask></mask><g stroke-linecap="round"><g transform="translate(37.11952573982168 505.672726286069) rotate(0 0 -36.44256227512621)"><path d="M0 0 C0 -12.15, 0 -60.74, 0 -72.89 M0 0 C0 -12.15, 0 -60.74, 0 -72.89" stroke="#1e1e1e" stroke-width="0.5" fill="none"></path></g></g><mask></mask><g stroke-linecap="round"><g transform="translate(37.997161083068676 433.4113647531019) rotate(0 27.56426692520745 0)"><path d="M0 0 C9.19 0, 45.94 0, 55.13 0 M0 0 C9.19 0, 45.94 0, 55.13 0" stroke="#1e1e1e" stroke-width="0.5" fill="none"></path></g></g><mask></mask><g stroke-linecap="round"><g transform="translate(93.32329045859663 506.1805938164902) rotate(0 0 -36.44256227512621)"><path d="M0 0 C0 -12.15, 0 -60.74, 0 -72.89 M0 0 C0 -12.15, 0 -60.74, 0 -72.89" stroke="#1e1e1e" stroke-width="0.5" fill="none"></path></g></g><mask></mask><g stroke-linecap="round"><g transform="translate(93.32329045859663 578.7616831868556) rotate(0 0 -36.44256227512619)"><path d="M0 0 C0 -12.15, 0 -60.74, 0 -72.89 M0 0 C0 -12.15, 0 -60.74, 0 -72.89" stroke="#1e1e1e" stroke-width="0.5" fill="none"></path></g></g><mask></mask><g stroke-linecap="round"><g transform="translate(93.82153687509884 578.6895774374701) rotate(0 27.56426692520745 0)"><path d="M0 0 C9.19 0, 45.94 0, 55.13 0 M0 0 C9.19 0, 45.94 0, 55.13 0" stroke="#1e1e1e" stroke-width="0.5" fill="none"></path></g></g><mask></mask><g stroke-linecap="round"><g transform="translate(148.90005757514183 506.14923532652307) rotate(0 0 -36.44256227512621)"><path d="M0 0 C0 -12.15, 0 -60.74, 0 -72.89 M0 0 C0 -12.15, 0 -60.74, 0 -72.89" stroke="#1e1e1e" stroke-width="0.5" fill="none"></path></g></g><mask></mask><g stroke-linecap="round"><g transform="translate(148.90005757514183 578.7303246968886) rotate(0 0 -36.44256227512619)"><path d="M0 0 C0 -12.15, 0 -60.74, 0 -72.89 M0 0 C0 -12.15, 0 -60.74, 0 -72.89" stroke="#1e1e1e" stroke-width="0.5" fill="none"></path></g></g><mask></mask><g stroke-linecap="round"><g transform="translate(149.1350026586477 432.81896022578377) rotate(0 27.56426692520745 0)"><path d="M0 0 C9.19 0, 45.94 0, 55.13 0 M0 0 C9.19 0, 45.94 0, 55.13 0" stroke="#1e1e1e" stroke-width="0.5" fill="none"></path></g></g><mask></mask><g stroke-linecap="round"><g transform="translate(204.03799360753573 506.5347918503024) rotate(0 0 -36.44256227512621)"><path d="M0 0 C0 -12.15, 0 -60.74, 0 -72.89 M0 0 C0 -12.15, 0 -60.74, 0 -72.89" stroke="#1e1e1e" stroke-width="0.5" fill="none"></path></g></g><mask></mask><g stroke-linecap="round"><g transform="translate(204.03799360753573 579.1158812206679) rotate(0 0 -36.44256227512619)"><path d="M0 0 C0 -12.15, 0 -60.74, 0 -72.89 M0 0 C0 -12.15, 0 -60.74, 0 -72.89" stroke="#1e1e1e" stroke-width="0.5" fill="none"></path></g></g><mask></mask><g stroke-linecap="round"><g transform="translate(204.4265121342084 578.8869942682265) rotate(0 27.56426692520745 0)"><path d="M0 0 C9.19 0, 45.94 0, 55.13 0 M0 0 C9.19 0, 45.94 0, 55.13 0" stroke="#1e1e1e" stroke-width="0.5" fill="none"></path></g></g><mask></mask><g stroke-linecap="round"><g transform="translate(260.2823827072313 506.20253671195053) rotate(0 0 -36.44256227512621)"><path d="M0 0 C0 -12.15, 0 -60.74, 0 -72.89 M0 0 C0 -12.15, 0 -60.74, 0 -72.89" stroke="#1e1e1e" stroke-width="0.5" fill="none"></path></g></g><mask></mask><g stroke-linecap="round"><g transform="translate(260.2823827072313 578.783626082316) rotate(0 0 -36.44256227512622)"><path d="M0 0 C0 -12.15, 0 -60.74, 0 -72.89 M0 0 C0 -12.15, 0 -60.74, 0 -72.89" stroke="#1e1e1e" stroke-width="0.5" fill="none"></path></g></g><mask></mask><g stroke-linecap="round"><g transform="translate(620.9065166920241 436.35026769275237) rotate(0 0 -128.43665313720703)"><path d="M0 0 C0 -42.81, 0 -214.06, 0 -256.87 M0 0 C0 -42.81, 0 -214.06, 0 -256.87" stroke="#1e1e1e" stroke-width="2" fill="none"></path></g><g transform="translate(620.9065166920241 436.35026769275237) rotate(0 0 -128.43665313720703)"><path d="M0 -256.87 L6.34 -243.28 L-6.34 -243.28 L0 -256.87" stroke="none" stroke-width="0" fill="#1e1e1e" fill-rule="evenodd"></path><path d="M0 -256.87 C2.29 -251.96, 4.58 -247.04, 6.34 -243.28 M0 -256.87 C2.21 -252.14, 4.41 -247.41, 6.34 -243.28 M6.34 -243.28 C3.29 -243.28, 0.24 -243.28, -6.34 -243.28 M6.34 -243.28 C1.38 -243.28, -3.58 -243.28, -6.34 -243.28 M-6.34 -243.28 C-3.81 -248.69, -1.29 -254.11, 0 -256.87 M-6.34 -243.28 C-4.51 -247.19, -2.69 -251.11, 0 -256.87 M0 -256.87 C0 -256.87, 0 -256.87, 0 -256.87 M0 -256.87 C0 -256.87, 0 -256.87, 0 -256.87" stroke="#1e1e1e" stroke-width="2" fill="none"></path></g></g><mask></mask><g stroke-linecap="round"><g transform="translate(503.56691708264907 333.24577550525237) rotate(0 170.77997589111328 0)"><path d="M0 0 C56.93 0, 284.63 0, 341.56 0 M0 0 C56.93 0, 284.63 0, 341.56 0" stroke="#1e1e1e" stroke-width="2" fill="none"></path></g><g transform="translate(503.56691708264907 333.24577550525237) rotate(0 170.77997589111328 0)"><path d="M341.56 0 L327.97 6.34 L327.97 -6.34 L341.56 0" stroke="none" stroke-width="0" fill="#1e1e1e" fill-rule="evenodd"></path><path d="M341.56 0 C338.08 1.62, 334.61 3.24, 327.97 6.34 M341.56 0 C338.33 1.5, 335.11 3.01, 327.97 6.34 M327.97 6.34 C327.97 2.54, 327.97 -1.26, 327.97 -6.34 M327.97 6.34 C327.97 3.01, 327.97 -0.33, 327.97 -6.34 M327.97 -6.34 C331.23 -4.82, 334.5 -3.29, 341.56 0 M327.97 -6.34 C331.58 -4.65, 335.19 -2.97, 341.56 0 M341.56 0 C341.56 0, 341.56 0, 341.56 0 M341.56 0 C341.56 0, 341.56 0, 341.56 0" stroke="#1e1e1e" stroke-width="2" fill="none"></path></g></g><mask></mask><g stroke-linecap="round"><g transform="translate(511.6114566880116 261.14390961042864) rotate(0 27.56426692520745 0)"><path d="M0 0 C9.19 0, 45.94 0, 55.13 0 M0 0 C9.19 0, 45.94 0, 55.13 0" stroke="#1e1e1e" stroke-width="0.5" fill="none"></path></g></g><mask></mask><g stroke-linecap="round"><g transform="translate(566.3853918002975 328.3529837705996) rotate(0 27.56426692520745 0)"><path d="M0 0 C9.19 0, 45.94 0, 55.13 0 M0 0 C9.19 0, 45.94 0, 55.13 0" stroke="#1e1e1e" stroke-width="0.5" fill="none"></path></g></g><mask></mask><g stroke-linecap="round"><g transform="translate(633.0749620633176 263.1700872730311) rotate(0 27.56426692520745 0)"><path d="M0 0 C9.19 0, 45.94 0, 55.13 0 M0 0 C9.19 0, 45.94 0, 55.13 0" stroke="#1e1e1e" stroke-width="0.5" fill="none"></path></g></g><mask></mask><g stroke-linecap="round"><g transform="translate(708.7310027263936 327.6806599937201) rotate(0 27.56426692520745 0)"><path d="M0 0 C9.19 0, 45.94 0, 55.13 0 M0 0 C9.19 0, 45.94 0, 55.13 0" stroke="#1e1e1e" stroke-width="0.5" fill="none"></path></g></g><mask></mask><g stroke-linecap="round"><g transform="translate(780.8817586486027 263.15478697701167) rotate(0 27.56426692520745 0)"><path d="M0 0 C9.19 0, 45.94 0, 55.13 0 M0 0 C9.19 0, 45.94 0, 55.13 0" stroke="#1e1e1e" stroke-width="0.5" fill="none"></path></g></g><mask></mask></svg>